Coordinates
version=1
nRows=26
nColumns=24
inDegrees=yes

Units are S.I. units (second, meters, Newtons, ...)
Angles are in degrees.

endheader
time	pelvis_tilt	pelvis_list	pelvis_rotation	pelvis_tx	pelvis_ty	pelvis_tz	hip_flexion_r	hip_adduction_r	hip_rotation_r	knee_angle_r	ankle_angle_r	subtalar_angle_r	mtp_angle_r	hip_flexion_l	hip_adduction_l	hip_rotation_l	knee_angle_l	ankle_angle_l	subtalar_angle_l	mtp_angle_l	lumbar_extension	lumbar_bending	lumbar_rotation
      0.58100000	      4.53713558	      1.55816392	      8.37764323	     -0.80700192	      0.88223215	      0.31045760	     24.13373808	     -2.39868256	     -7.37956580	     -4.84940976	      9.00769480	      0.27611792	      1.30441108	    -29.38279259	     -0.86436697	      5.10061406	     -3.26529601	     14.33202772	      1.33299385	     15.76895815	    -11.66472458	     -2.89294621	     -8.94533601
      0.58516667	      4.50395375	      1.49234461	      8.46555548	     -0.80100985	      0.88103109	      0.31080391	     24.37188289	     -2.30852753	     -7.21307406	     -5.63029211	      8.96545716	     -0.09769283	      1.29804476	    -29.49702909	     -1.04203348	      5.02686191	     -3.76760080	     14.37032330	      1.48386736	     15.79579126	    -11.58040071	     -2.71620268	     -8.93036563
      0.58933333	      4.43935118	      1.41540997	      8.54889746	     -0.79498477	      0.87982148	      0.31120328	     24.63229367	     -2.20010544	     -7.04145820	     -6.42193730	      8.77221458	     -0.53169989	      1.29423022	    -29.54195357	     -1.22783683	      4.90988635	     -4.34424045	     14.40246575	      1.71648331	     15.85675079	    -11.48349254	     -2.55454726	     -8.89605452
      0.59350000	      4.40312412	      1.31834074	      8.61872129	     -0.78888722	      0.87866763	      0.31164532	     24.84523772	     -2.05453706	     -6.89185326	     -7.21362244	      8.50372674	     -0.97440289	      1.29998942	    -29.62825102	     -1.43597912	      4.75180873	     -4.89436645	     14.38842539	      1.95888989	     15.96604376	    -11.41201620	     -2.36699913	     -8.85066244
      0.59766667	      4.36436904	      1.20911806	      8.68522331	     -0.78272901	      0.87754151	      0.31210404	     25.04964153	     -1.89143902	     -6.76531065	     -8.01939240	      8.17787977	     -1.43682855	      1.31632897	    -29.70434572	     -1.65281971	      4.62014516	     -5.46986043	     14.33981266	      2.13021850	     16.09778163	    -11.31460827	     -2.15580272	     -8.80155360
      0.60183333	      4.32686821	      1.09448028	      8.74272390	     -0.77653760	      0.87645875	      0.31260462	     25.24209152	     -1.71275352	     -6.65029215	     -8.82779700	      7.75954667	     -1.90978638	      1.34453842	    -29.76861908	     -1.87325801	      4.46506755	     -6.06379946	     14.25243935	      2.30713278	     16.26749111	    -11.22063362	     -1.93972132	     -8.74278200
      0.60600000	      4.32819018	      0.96542269	      8.79113310	     -0.77030635	      0.87545016	      0.31316823	     25.38121430	     -1.50077539	     -6.53329318	     -9.63696450	      7.29397500	     -2.45227192	      1.42686425	    -29.84941613	     -2.11653363	      4.25212302	     -6.71777626	     14.19839120	      2.58055099	     16.62435415	    -11.18507618	     -1.72157945	     -8.65645234
      0.61016667	      4.27527260	      0.82021089	      8.82791715	     -0.76400354	      0.87441039	      0.31375105	     25.57386438	     -1.27506402	     -6.44131568	    -10.45289152	      6.74674053	     -2.94938230	      1.51375533	    -29.88354218	     -2.35762339	      4.09664802	     -7.34694846	     14.04102244	      2.68475160	     16.96711930	    -11.05284168	     -1.47969530	     -8.57932546
      0.61433333	      4.23470530	      0.66014007	      8.84647963	     -0.75766157	      0.87342081	      0.31438982	     25.74340566	     -1.01955201	     -6.34448499	    -11.25897501	      6.13038623	     -3.47864154	      1.63831320	    -29.91494328	     -2.61079245	      3.88638723	     -8.00953649	     13.86020088	      2.84013963	     17.41022928	    -10.92848534	     -1.22093079	     -8.46901311
      0.61850000	      4.20009440	      0.49077565	      8.86539892	     -0.75126630	      0.87248381	      0.31503186	     25.91613088	     -0.76510508	     -6.34719651	    -12.10721918	      5.51383478	     -3.80456309	      2.96148858	    -29.93199783	     -2.87940877	      3.62548034	     -8.69506474	     13.57569744	      2.98645696	     21.67263859	    -10.81938293	     -0.94288399	     -8.43497541
      0.62266667	      4.13981524	      0.31687618	      8.86339137	     -0.74485531	      0.87156338	      0.31574768	     26.10552652	     -0.48773215	     -6.27772683	    -12.93594868	      4.83716003	     -4.29147913	      2.95437009	    -29.93379673	     -3.12936167	      3.49011709	     -9.36905952	     13.29244329	      2.96555388	     21.72948303	    -10.67380975	     -0.68436090	     -8.28047903
      0.62683333	      4.07274255	      0.13745757	      8.85042462	     -0.73840275	      0.87069084	      0.31646937	     26.30387940	     -0.21177978	     -6.26187247	    -13.78153672	      4.15452426	     -4.60572172	      2.95817319	    -29.90925239	     -3.37967864	      3.31397117	    -10.07503118	     12.93356502	      2.97990714	     21.79575675	    -10.50212380	     -0.39754864	     -8.17941008
      0.63100000	      3.98377440	     -0.05079117	      8.82512221	     -0.73194828	      0.86982400	      0.31727347	     26.53469015	      0.08383421	     -6.20528598	    -14.65098804	      3.47174985	     -5.03503621	      2.97919819	    -29.82227601	     -3.63623175	      3.10545111	    -10.86009781	     12.60966938	      3.04922961	     21.91356173	    -10.32646985	     -0.13183285	     -8.03314503
      0.63516667	      3.91414637	     -0.23698360	      8.78402784	     -0.72549023	      0.86902243	      0.31811377	     26.75399892	      0.38578237	     -6.14596726	    -15.55155701	      2.83094087	     -5.49503042	      3.03587578	    -29.73504896	     -3.88927516	      2.85912421	    -11.68669969	     12.29742030	      3.16544553	     22.14422938	    -10.15674450	      0.13683575	     -7.85544635
      0.63933333	      3.81961288	     -0.43869013	      8.73375349	     -0.71900192	      0.86825007	      0.31898370	     27.00330969	      0.69702495	     -6.11818991	    -16.46646433	      2.21463114	     -5.81396700	      3.11388351	    -29.59724511	     -4.15126571	      2.61716698	    -12.55471114	     11.89603058	      3.24211385	     22.45494801	     -9.96983614	      0.41892379	     -7.69215778
      0.64350000	      3.71075069	     -0.63643414	      8.67404356	     -0.71250349	      0.86752464	      0.31987005	     27.27700820	      0.99932313	     -6.10687379	    -17.41486658	      1.66014034	     -6.06672594	      3.20035949	    -29.42773096	     -4.39791921	      2.41984665	    -13.44164465	     11.45279626	      3.25559648	     22.80813739	     -9.76396052	      0.69030605	     -7.53779492
      0.64766667	      3.62516060	     -0.85429509	      8.60778373	     -0.70596323	      0.86690950	      0.32074977	     27.51718206	      1.31843283	     -6.13614366	    -18.35903937	      1.18196178	     -6.17660659	      3.23738165	    -29.28247987	     -4.66102013	      2.24405714	    -14.31713461	     10.87188236	      3.18345827	     22.98508088	     -9.57234623	      1.01097938	     -7.43541300
      0.65183333	      3.49801240	     -1.05236751	      8.52795799	     -0.69946006	      0.86628168	      0.32168566	     27.82206554	      1.61912026	     -6.12875313	    -19.35618976	      0.76722490	     -6.35507011	      3.28274420	    -29.04170308	     -4.89601741	      2.06074978	    -15.29163217	     10.34444687	      3.15127515	     23.21247680	     -9.33877068	      1.28368799	     -7.27230250
      0.65600000	      3.38615139	     -1.25232924	      8.44116989	     -0.69294826	      0.86574656	      0.32262996	     28.10773274	      1.92189850	     -6.13115039	    -20.36481459	      0.44521490	     -6.47532081	      3.32661842	    -28.79486428	     -5.13168991	      1.87871679	    -16.29491161	      9.75282417	      3.10325188	     23.45093281	     -9.11582885	      1.56417287	     -7.11619374
      0.66016667	      3.24363524	     -1.41480902	      8.33972991	     -0.68650642	      0.86518836	      0.32360569	     28.46231042	      2.17997078	     -6.13254313	    -21.46326340	      0.22027967	     -6.59256581	      3.40614883	    -28.45546578	     -5.32499633	      1.67344239	    -17.41909679	      9.25839993	      3.12822940	     23.92694562	     -8.87663520	      1.77407101	     -6.89380922
      0.66433333	      3.16722447	     -1.64628558	      8.26590593	     -0.67998032	      0.86485561	      0.32452829	     28.68686786	      2.50066744	     -6.21088192	    -22.45078939	      0.06577596	     -6.55663881	      4.17246060	    -28.18443829	     -5.60770094	      1.48869702	    -18.49315926	      8.50804768	      2.97533898	     29.63340927	     -8.70172681	      2.10306285	     -6.73317363
      0.66850000	      3.07693546	     -1.87885132	      8.15442610	     -0.67345559	      0.86455410	      0.32551902	     28.92159332	      2.84778879	     -6.20235966	    -23.43580426	     -0.01308888	     -6.58128674	      4.16506284	    -27.88279333	     -5.86974368	      1.30108924	    -19.60559052	      7.78068576	      2.88025523	     29.64710583	     -8.51901763	      2.42286881	     -6.65698676
      0.67266667	      2.96165717	     -2.06476455	      8.04832079	     -0.66701438	      0.86426455	      0.32648587	     29.19920462	      3.12594751	     -6.23467870	    -24.47497517	      0.01033007	     -6.52701208	      4.14614008	    -27.48810814	     -6.08881185	      1.11871871	    -20.83868070	      7.10391318	      2.84443371	     29.70160984	     -8.30135296	      2.67864291	     -6.49810600
      0.67683333	      2.90578697	     -2.31388021	      7.95214763	     -0.66051052	      0.86417347	      0.32743232	     29.35226388	      3.48053376	     -6.27471073	    -25.39447846	      0.09297701	     -6.46545228	      4.13487651	    -27.15934172	     -6.37890772	      0.95637135	    -22.03134079	      6.29978126	      2.72312909	     29.73450450	     -8.14302709	      3.03935938	     -6.40366462
      0.68100000	      2.83453834	     -2.54545918	      7.84756011	     -0.65405066	      0.86410568	      0.32838427	     29.51817511	      3.81261929	     -6.32284028	    -26.31907356	      0.25460604	     -6.35428791	      4.11925722	    -26.76464834	     -6.65511053	      0.75632721	    -23.30916111	      5.48971076	      2.65682183	     29.77622800	     -7.97226129	      3.36383724	     -6.28681295
      0.68516667	      2.75917901	     -2.74949885	      7.73662482	     -0.64766174	      0.86407320	      0.32932983	     29.68741440	      4.10815632	     -6.39335545	    -27.25515234	      0.49647413	     -6.15292349	      4.07856789	    -26.31315605	     -6.90913340	      0.52724334	    -24.67240783	      4.74282275	      2.65973794	     29.85829425	     -7.81684263	      3.63269648	     -6.13812043
